# xmcd
#
# Track frame offsets:
#	151
#	21163
#	38365
#	56944
#	76187
#	94368
#	113840
#	134729
#	147581
#	167155
#
# Disc length: 2483 seconds
#
# Revision: 1
# Processed by: cddbd v1.5.1PL0 Copyright (c) Steve Scherf et al.
# Submitted via: EasyCDDAExtractor 7.1.0.1
#
DISCID=8b09b10a
DTITLE=Rusty - Cowboy Up
DYEAR=2002
DGENRE=Country
TTITLE0=Walking Alone
TTITLE1=I'll never love again
TTITLE2=Fire from Ashes
TTITLE3=Money Down
TTITLE4=Cowboy Up
TTITLE5=Midnight in the Rain
TTITLE6=Faded Dusty Road
TTITLE7=Moma Could Do-Si-Do
TTITLE8=Jessie's Song
TTITLE9=When I look at You
EXTD=
EXTT0=
EXTT1=
EXTT2=
EXTT3=
EXTT4=
EXTT5=
EXTT6=
EXTT7=
EXTT8=
EXTT9=
PLAYORDER=
